HIERARCHY
ROOT RootJoint
{
    OFFSET   0.000000   0.000000   0.000000
    CHANNELS 6 Xposition Yposition Zposition Xrotation Yrotation Zrotation
    JOINT pelvis_lowerback
    {
        OFFSET   0.000000   0.093605   0.000000
        CHANNELS 3 Xrotation Yrotation Zrotation
        JOINT lowerback_torso
        {
            OFFSET   0.000000   0.100000   0.000000
            CHANNELS 3 Xrotation Yrotation Zrotation
            JOINT torso_head
            {
                OFFSET   0.000000   0.282350   0.000000
                CHANNELS 3 Xrotation Yrotation Zrotation
                End Site
                {
                    OFFSET   0.000000   0.192650   0.000000
                }
            }
            JOINT rTorso_Clavicle
            {
                OFFSET  -0.001000   0.157500   0.000000
                CHANNELS 3 Xrotation Yrotation Zrotation
                JOINT rShoulder
                {
                    OFFSET  -0.117647   0.000000   0.000000
                    CHANNELS 3 Xrotation Yrotation Zrotation
                    JOINT rElbow
                    {
                        OFFSET  -0.245000   0.000000   0.000000
                        CHANNELS 3 Xrotation Yrotation Zrotation
                        JOINT rWrist
                        {
                            OFFSET  -0.240000   0.000000   0.000000
                            CHANNELS 3 Xrotation Yrotation Zrotation
                            End Site
                            {
                                OFFSET  -0.116353  -0.002500   0.000000
                            }
                        }
                    }
                }
            }
            JOINT lTorso_Clavicle
            {
                OFFSET   0.001000   0.157500   0.000000
                CHANNELS 3 Xrotation Yrotation Zrotation
                JOINT lShoulder
                {
                    OFFSET   0.117647   0.000000   0.000000
                    CHANNELS 3 Xrotation Yrotation Zrotation
                    JOINT lElbow
                    {
                        OFFSET   0.245000   0.000000   0.000000
                        CHANNELS 3 Xrotation Yrotation Zrotation
                        JOINT lWrist
                        {
                            OFFSET   0.240000   0.000000   0.000000
                            CHANNELS 3 Xrotation Yrotation Zrotation
                            End Site
                            {
                                OFFSET   0.116353  -0.002500   0.000000
                            }
                        }
                    }
                }
            }
        }
    }
    JOINT rHip
    {
        OFFSET  -0.100000  -0.051395   0.000000
        CHANNELS 3 Xrotation Yrotation Zrotation
        JOINT rKnee
        {
            OFFSET   0.000000  -0.410000   0.000000
            CHANNELS 3 Xrotation Yrotation Zrotation
            JOINT rAnkle
            {
                OFFSET   0.000000  -0.390000   0.000000
                CHANNELS 3 Xrotation Yrotation Zrotation
                JOINT rToeJoint
                {
                    OFFSET   0.000000  -0.050000   0.130000
                    CHANNELS 3 Xrotation Yrotation Zrotation
                    End Site
                    {
                        OFFSET  -0.010000   0.002000   0.060000
                    }
                }
            }
        }
    }
    JOINT lHip
    {
        OFFSET   0.100000  -0.051395   0.000000
        CHANNELS 3 Xrotation Yrotation Zrotation
        JOINT lKnee
        {
            OFFSET   0.000000  -0.410000   0.000000
            CHANNELS 3 Xrotation Yrotation Zrotation
            JOINT lAnkle
            {
                OFFSET   0.000000  -0.390000   0.000000
                CHANNELS 3 Xrotation Yrotation Zrotation
                JOINT lToeJoint
                {
                    OFFSET   0.000000  -0.050000   0.130000
                    CHANNELS 3 Xrotation Yrotation Zrotation
                    End Site
                    {
                        OFFSET   0.010000   0.002000   0.060000
                    }
                }
            }
        }
    }
}
MOTION
Frames: 17
Frame Time:   0.008333
 -2.376719   0.925631   3.975860   0.000000   0.000000   0.000000   0.000000   0.000000   0.000000   0.000000   0.000000   0.000000   0.000000   0.000000   0.000000   0.000000   0.000000   0.000000   0.000000   0.000000   0.000000   0.000000   0.000000   0.000000   0.000000   0.000000   0.000000   0.000000   0.000000   0.000000   0.000000   0.000000   0.000000   0.000000   0.000000   0.000000   0.000000   0.000000   0.000000   0.000000   0.000000   0.000000   0.000000   0.000000   0.000000   0.000000   0.000000   0.000000   0.000000   0.000000   0.000000   0.000000   0.000000   0.000000   0.000000   0.000000   0.000000   0.000000   0.000000   0.000000   0.000000   0.000000   0.000000
 -2.376115   0.925826   3.974996   0.388304   0.882554   0.285365  -0.774209  -0.206680  -0.249150   0.678515  -0.140746   0.006601  -0.191995   0.423787   0.237111   0.622529  -1.068120  -0.092812   1.956946  -0.785070   1.908563   0.051390   3.066729  -0.077736   0.114622  -0.591250  -1.826185  -0.613222  -0.065717  -0.145655  -0.864836  -0.176419  -2.093243   0.065347  -3.484275  -0.034211   0.117024   1.302026   2.551918  -1.714853  -0.710223  -0.325968   3.004523   0.000538   0.004267  -2.997035  -0.066839   0.187660   0.335150  -0.000515   0.000291  -1.082763  -0.603637  -0.490002   2.790621   0.004779   0.006515  -3.820130  -0.188787  -0.032066   0.262814   0.000481   0.000203
 -2.375406   0.926102   3.974332   0.629830   2.203537   0.599480  -1.502877  -0.579243  -0.498435   1.405577  -0.506740  -0.027048  -0.323386   0.854023   0.501334   1.236155  -2.209460   0.334826   3.923891  -1.567692   4.260438   0.120795   5.975549  -0.134397   0.331386  -0.541906  -3.183803  -1.204030  -0.323198  -0.986065  -1.710828  -0.533974  -4.605380   0.151530  -7.133972  -0.062921   0.215511   1.460356   4.306606  -3.586992  -1.408990  -0.687412   6.113908   0.000577   0.019445  -5.792564  -0.140841   0.347966   0.560802  -0.000847   0.001264  -1.765116  -1.170059  -1.111624   5.906539   0.012758   0.024442  -7.642207  -0.382969  -0.094533   0.334984   0.000565   0.000509
 -2.374777   0.926094   3.973800   0.843144   3.769888   0.891254  -2.226653  -1.076876  -0.754154   2.073508  -1.022362  -0.087698  -0.445036   1.259056   0.765131   1.823119  -3.314008   1.121598   5.881349  -2.287639   6.899464   0.189802   8.681453  -0.171514   0.548898  -0.406670  -3.942627  -1.759790  -0.689943  -2.258586  -2.526419  -0.940771  -7.316454   0.238961 -10.832259  -0.086813   0.319958   1.199710   5.238493  -5.652947  -2.070017  -1.032161   9.018147   0.000752   0.037228  -8.399189  -0.214229   0.489745   0.773344  -0.001202   0.002474  -2.128436  -1.683123  -1.747493   9.133756   0.022983   0.046769 -11.207145  -0.559191  -0.171661   0.390804   0.000597   0.000830
 -2.374256   0.925514   3.973322   1.059607   5.456577   1.146568  -2.941870  -1.658845  -1.022280   2.670391  -1.636761  -0.160873  -0.567907   1.637678   1.015347   2.389811  -4.375907   2.170997   7.746236  -2.893011   9.613599   0.248133  11.196598  -0.192469   0.753084  -0.293881  -4.165444  -2.278662  -1.104294  -3.788116  -3.306133  -1.341620 -10.102849   0.317645 -14.550550  -0.105985   0.416287   0.797669   5.563498  -7.929150  -2.695997  -1.364870  11.679595   0.001287   0.052835 -10.833807  -0.286606   0.617774   0.960857  -0.001513   0.003494  -2.223275  -2.156257  -2.348825  12.441831   0.034930   0.068803 -14.531220  -0.717579  -0.255426   0.447755   0.000625   0.001188
 -2.373836   0.924138   3.972840   1.288800   7.181364   1.363227  -3.639985  -2.294008  -1.303638   3.205758  -2.313933  -0.244215  -0.691789   1.990890   1.250194   2.938641  -5.389054   3.369210   9.520251  -3.384563  12.319458   0.292326  13.537322  -0.201949   0.940715  -0.210604  -4.019076  -2.760027  -1.534994  -5.452147  -4.045770  -1.713616 -12.880295   0.382982 -18.276568  -0.120402   0.497086   0.363330   5.477508 -10.413777  -3.288920  -1.700745  14.105225   0.001975   0.064373 -13.108310  -0.358113   0.734876   1.125268  -0.001761   0.004196  -2.086362  -2.602122  -2.894508  15.822236   0.048047   0.087885 -17.630757  -0.859813  -0.341010   0.506435   0.000650   0.001539
 -2.373374   0.921962   3.972613   1.608185   9.145977   1.442264  -4.412952  -3.062321  -1.522436   3.659877  -3.110641  -0.306816  -0.811639   2.317240   1.471308   3.481113  -6.401667   4.633100  11.210321  -3.805194  14.961310   0.321866  15.705946  -0.202385   1.110547  -0.192968  -3.642126  -3.204781  -1.979862  -7.197199  -4.742144  -2.059429 -15.614571   0.433439 -22.011122  -0.132767   0.566048  -0.089169   5.102714 -12.780220  -3.730688  -2.230314  16.895769   0.011101   0.084501 -15.010900  -0.356286   0.725855   1.219479  -0.001446   0.004518  -1.815911  -3.047643  -3.297093  19.257272   0.063844   0.109361 -20.520642  -0.988659  -0.431051   0.568372   0.000678   0.001999
 -2.373622   0.917986   3.971606   1.911419  10.615466   1.186350  -4.944265  -3.381055  -1.569629   4.177130  -3.917706  -0.144752  -1.128567   2.360357   1.478716   4.151192  -7.091332   5.186668  12.916980  -4.515470  17.361308   0.356337  18.712278  -0.225939   1.117350  -0.336364  -2.214080  -3.821646  -2.448139  -8.040858  -5.620306  -2.787509 -18.534058   0.444083 -25.625011  -0.140340   0.404469  -0.021908   3.842753 -15.677557  -4.111042  -2.354121  20.341090   0.017213   0.097011 -16.854725  -0.598779   0.698330   1.536704  -0.001521   0.005750  -0.970836  -3.429879  -3.117978  21.490694   0.063440   0.105869 -24.108848  -1.208005  -0.630211   0.908976   0.001223   0.004326
 -2.374204   0.912505   3.969993   2.269611  11.991775   0.852027  -5.369942  -3.725638  -1.625720   4.695927  -4.725169   0.037576  -1.427970   2.392846   1.481600   4.756045  -7.646118   5.415790  14.512679  -5.077439  19.408759   0.362972  21.562896  -0.239274   1.153252  -0.173555  -1.009241  -4.459020  -3.051102  -8.535858  -6.523818  -3.570683 -21.081718   0.435399 -29.290793  -0.138962   0.261799  -0.080895   2.785601 -18.804256  -4.504255  -2.452391  23.590783   0.021620   0.102498 -18.570698  -0.828127   0.667484   1.840556  -0.001619   0.006433  -0.039643  -3.826739  -2.753895  23.462834   0.060119   0.099518 -27.476064  -1.400590  -0.822977   1.152257   0.001253   0.005224
 -2.374910   0.905897   3.968178   2.737665  13.414844   0.413343  -5.788291  -4.154608  -1.653206   5.182992  -5.573447   0.227909  -1.699563   2.421324   1.483513   5.309925  -8.140834   5.432289  16.005468  -5.559307  21.179727   0.352631  24.230001  -0.242857   1.193529   0.056298  -0.145434  -5.114139  -3.741004  -8.828550  -7.445211  -4.374103 -23.348413   0.416949 -33.000180  -0.133413   0.159427  -0.363162   2.026440 -21.873292  -4.801029  -2.655854  27.053299   0.031648   0.111303 -19.993014  -1.003460   0.578204   2.089171  -0.001212   0.007070   0.892187  -4.222624  -2.233527  25.288061   0.056655   0.094108 -30.619410  -1.567808  -1.010962   1.379872   0.001121   0.005951
 -2.375775   0.898473   3.966315   3.335759  14.699064  -0.100846  -6.213768  -4.578641  -1.686837   5.614945  -6.400160   0.419506  -1.952508   2.449053   1.487314   5.816856  -8.586411   5.320889  17.401088  -5.977020  22.741509   0.332893  26.720408  -0.238720   1.232533   0.283503   0.457724  -5.772696  -4.459276  -8.982720  -8.370447  -5.158793 -25.386027   0.395095 -36.737255  -0.124822   0.083497  -0.807750   1.512212 -24.740753  -5.146424  -2.802883  30.562349   0.038840   0.113676 -21.240686  -1.203747   0.551906   2.325226  -0.001036   0.007098   1.827098  -4.588970  -1.633512  26.977303   0.052628   0.087081 -33.552600  -1.712373  -1.189057   1.598581   0.000971   0.006277
 -2.376732   0.890533   3.964366   4.101909  15.787726  -0.679958  -6.664410  -4.984083  -1.726110   5.978039  -7.187200   0.603415  -2.193206   2.475623   1.489810   6.280086  -8.990131   5.132476  18.704516  -6.340277  24.136680   0.308685  29.043790  -0.229279   1.269080   0.490601   0.872926  -6.422766  -5.175004  -9.050497  -9.287167  -5.904739 -27.238359   0.374657 -40.491682  -0.112861   0.024603  -1.350397   1.182976 -27.361619  -5.510398  -2.848557  34.116437   0.042154   0.111148 -22.332390  -1.399487   0.543598   2.540789  -0.000989   0.006684   2.717550  -4.928480  -1.021408  28.541030   0.048194   0.078191 -36.289184  -1.839208  -1.355948   1.809419   0.000892   0.006193
 -2.377719   0.882460   3.961992   4.984102  16.601039  -1.339012  -7.050523  -5.350021  -1.721196   6.306351  -7.912172   0.796870  -2.426532   2.501358   1.490837   6.691397  -9.329153   4.904973  19.911715  -6.638946  25.392739   0.283645  31.215006  -0.217747   1.301990   0.686423   1.142184  -7.064696  -5.886997  -9.069402 -10.192146  -6.611020 -28.936546   0.361224 -44.257394  -0.094158  -0.022045  -1.946132   1.008640 -29.972684  -5.824028  -2.816371  37.338921   0.042722   0.102502 -23.434825  -1.568885   0.515591   2.785590  -0.000892   0.006195   3.579045  -5.239216  -0.423860  29.998063   0.043387   0.067196 -38.842034  -1.951762  -1.510496   2.011658   0.000962   0.005667
 -2.379296   0.873284   3.958739   5.841716  17.019212  -2.232002  -6.739228  -5.970048  -1.339960   6.338408  -8.632789   0.973497  -2.817478   2.615622   1.508122   6.671093  -9.631622   4.144985  20.193640  -7.154799  26.461044   0.250599  34.489659  -0.181238   1.267860   0.417044   1.863332  -7.587107  -6.330596  -8.507172 -10.834756  -7.206980 -29.896905   0.345840 -48.066644  -0.039039   0.013838  -2.418918   0.348306 -32.820863  -6.091844  -2.464982  41.035368   0.041488   0.093062 -25.138013  -1.870925   0.599555   2.448617  -0.000101   0.004624   5.109328  -5.388866   0.613765  28.699721   0.033202   0.051638 -37.013822  -1.674612  -1.247332   1.850399   0.001176   0.003738
 -2.381111   0.863153   3.954669   6.760244  17.413217  -3.216976  -6.224229  -6.640464  -0.873584   6.438807  -9.312083   1.240758  -3.164552   2.705416   1.526424   6.605532  -9.877337   3.222206  20.414328  -7.627872  27.312195   0.211365  37.600413  -0.154775   1.189438   0.532392   2.214625  -8.174831  -6.761567  -7.628022 -11.520935  -7.785165 -30.540938   0.331590 -51.888814   0.021627   0.086098  -2.886248   0.023822 -35.745398  -6.388558  -2.135094  44.734843   0.042234   0.085472 -26.737969  -2.156786   0.670628   2.062565   0.000402   0.003203   6.435994  -5.540772   1.801111  27.032205   0.026851   0.038625 -35.263137  -1.403241  -1.003623   2.067633   0.000170   0.003865
 -2.382935   0.852251   3.950158   7.674692  17.779612  -4.204001  -5.583675  -7.262174  -0.368902   6.627467  -9.924051   1.555892  -3.456410   2.785371   1.542178   6.541368 -10.099963   2.227415  20.616130  -8.095155  28.012561   0.172897  40.500262  -0.137296   1.113602   0.687124   2.317464  -8.804354  -7.183146  -6.599667 -12.234566  -8.346284 -30.995263   0.324797 -55.726957   0.083110   0.179690  -3.400789   0.038038 -38.576100  -6.672556  -1.891246  48.295935   0.044672   0.078194 -28.232552  -2.426345   0.729535   1.699726   0.000504   0.002008   7.570580  -5.673566   3.012901  25.349466   0.023050   0.028407 -33.630782  -1.142511  -0.782728   2.288049  -0.000698   0.003841
 -2.384689   0.840724   3.945455   8.575597  18.102944  -5.167180  -4.880152  -7.811506   0.156088   6.879435 -10.461406   1.890172  -3.703600   2.860072   1.557171   6.484906 -10.311671   1.207074  20.807168  -8.558735  28.603238   0.138346  43.196781  -0.125640   1.045888   0.788917   2.265710  -9.436929  -7.578110  -5.520150 -12.945381  -8.872340 -31.335567   0.330049 -59.573642   0.145531   0.286140  -3.939095   0.274526 -41.244355  -6.932589  -1.729387  51.628991   0.047437   0.070301 -29.627918  -2.680584   0.777735   1.362278   0.000346   0.001077   8.541635  -5.784035   4.202973  23.724282   0.020812   0.020786 -32.108912  -0.892824  -0.583170   2.494703  -0.001347   0.003653
